# xmcd
#
# Track frame offsets:
#	150
#	15358
#	28628
#	45335
#	54071
#	64850
#	74307
#	87167
#	99679
#	112146
#
# Disc length: 1615 seconds
#
# Revision: 0
# Processed by: cddbd v1.5.2PL0 Copyright (c) Steve Scherf et al.
# Submitted via: EasyCDDAExtractor 10.2.0.1
#
DISCID=77064d0a
DTITLE=Narrow Way Quartet - Krystal Clear Records-He's All I Need
DYEAR=1900
DGENRE=Gospel
TTITLE0=I'm Longing For Home
TTITLE1=That Blessed Hope
TTITLE2=He's All I Need
TTITLE3=Heaven's Gonna Shine
TTITLE4=God Made A Coat
TTITLE5=The Great Physician
TTITLE6=Money Can't Buy
TTITLE7=Jesus Is The One
TTITLE8=Shepherd For The Sheep
TTITLE9=Everybody Will Be Happy Over There
EXTD=
EXTT0=
EXTT1=
EXTT2=
EXTT3=
EXTT4=
EXTT5=
EXTT6=
EXTT7=
EXTT8=
EXTT9=
PLAYORDER=
